<?xml version="1.0" standalone="no"?>
<!DOCTYPE svg PUBLIC "-//W3C//DTD SVG 20010904//EN"
 "http://www.w3.org/TR/2001/REC-SVG-20010904/DTD/svg10.dtd">
<svg version="1.0" xmlns="http://www.w3.org/2000/svg"
 width="700.000000pt" height="700.000000pt" viewBox="0 0 700.000000 700.000000"
 preserveAspectRatio="xMidYMid meet">
<metadata>
Created by potrace 1.11, written by Peter Selinger 2001-2013
</metadata>
<g transform="translate(0.000000,700.000000) scale(0.100000,-0.100000)"
fill="#000000" stroke="none">
<path d="M3960 6719 c0 -8 9 -48 20 -89 11 -41 23 -88 26 -105 3 -16 18 -87
34 -157 35 -152 84 -432 105 -608 28 -222 38 -538 21 -664 -57 -441 -336 -791
-721 -905 -109 -32 -121 -34 -280 -37 -161 -4 -262 11 -390 58 -314 113 -557
365 -665 686 -28 83 -33 105 -46 181 -3 18 -8 43 -10 55 -7 34 -6 225 1 238 4
7 -10 -5 -30 -27 -74 -79 -193 -246 -364 -512 -47 -74 -228 -440 -276 -558
-87 -218 -191 -562 -220 -727 -3 -18 -10 -51 -15 -73 -5 -22 -11 -60 -15 -85
-3 -25 -8 -52 -10 -60 -9 -29 -34 -277 -40 -385 -11 -204 -6 -478 11 -560 3
-11 7 -40 10 -65 4 -37 18 -106 49 -240 25 -111 102 -316 176 -466 113 -230
263 -437 449 -625 185 -186 360 -316 582 -434 163 -87 412 -184 535 -210 10
-2 41 -9 68 -15 28 -6 61 -14 75 -16 14 -2 34 -6 46 -9 11 -2 43 -7 70 -10 27
-3 60 -8 74 -11 46 -10 414 -13 505 -4 731 72 1392 474 1798 1095 146 224 245
451 315 725 33 128 41 173 57 305 3 33 9 71 11 85 10 55 3 485 -10 610 -4 36
-11 108 -17 160 -5 53 -11 107 -13 120 -3 14 -10 59 -16 100 -19 123 -24 151
-36 200 -5 23 -14 69 -29 145 -13 70 -92 342 -140 485 -78 231 -147 399 -264
640 -39 81 -140 263 -217 392 -275 459 -690 945 -1094 1282 -52 44 -101 86
-107 95 -11 12 -13 13 -13 0z m746 -2930 c32 -116 43 -157 63 -249 23 -104 47
-239 56 -316 3 -27 8 -67 12 -89 13 -86 27 -315 27 -455 0 -228 -24 -376 -91
-555 -93 -250 -274 -494 -478 -646 -33 -24 -61 -47 -63 -51 -2 -5 -8 -8 -14
-8 -5 0 -33 -15 -61 -34 -104 -68 -311 -150 -447 -175 -36 -7 -84 -16 -108
-21 -48 -9 -333 -6 -372 4 -14 3 -38 9 -54 11 -81 15 -300 117 -343 160 -8 8
-18 15 -22 15 -13 0 -135 124 -183 186 -159 206 -224 487 -173 749 78 400 357
653 844 761 581 130 1059 384 1327 706 31 38 59 67 61 64 2 -2 11 -28 19 -57z"/>
</g>
</svg>
